<?xml version="1.0" standalone="no"?>
<!DOCTYPE svg PUBLIC "-//W3C//DTD SVG 20010904//EN"
 "http://www.w3.org/TR/2001/REC-SVG-20010904/DTD/svg10.dtd">
<svg version="1.0" xmlns="http://www.w3.org/2000/svg"
 width="1600.000000pt" height="1200.000000pt" viewBox="0 0 1600.000000 1200.000000"
 preserveAspectRatio="xMidYMid meet">
<metadata>
Created by potrace 1.16, written by Peter Selinger 2001-2019
</metadata>
<g transform="translate(0.000000,1200.000000) scale(0.100000,-0.100000)"
fill="#000000" stroke="none">
<path d="M10446 11609 c-42 -33 -55 -75 -68 -215 l-12 -125 -86 7 c-110 9
-283 9 -338 -1 -53 -9 -102 -48 -102 -81 0 -59 21 -75 272 -214 399 -220 562
-311 565 -314 2 -1 -8 -18 -22 -36 -21 -29 -23 -36 -11 -49 19 -22 19 -101 0
-101 -23 0 -17 -56 9 -77 27 -22 33 -106 7 -98 -12 4 -26 -55 -78 -333 -35
-185 -66 -347 -69 -359 -5 -21 -14 -15 -107 65 -646 557 -1262 874 -1931 993
-151 27 -543 38 -693 19 -246 -30 -392 -73 -667 -198 -722 -325 -1239 -683
-1579 -1092 -160 -192 -210 -302 -210 -465 0 -88 3 -108 27 -165 16 -36 35
-92 43 -125 23 -95 44 -154 86 -244 44 -94 67 -175 94 -332 l18 -107 -85 -90
c-73 -78 -87 -89 -104 -80 -38 20 -191 184 -283 306 l-94 123 -26 -17 c-15 -9
-42 -27 -60 -40 -27 -18 -40 -20 -64 -13 -71 20 -100 79 -106 211 -7 154 21
295 104 528 46 130 58 262 30 315 -24 44 -55 59 -114 56 -22 -1 -36 -17 -162
-199 l-51 -72 -97 98 c-129 131 -190 158 -247 110 -31 -27 -33 -45 -22 -213
l8 -120 -58 0 c-39 0 -68 -6 -85 -17 -24 -16 -27 -25 -34 -110 -4 -51 -9 -96
-10 -100 -1 -5 -2 -25 -3 -46 -1 -38 -1 -38 -58 -50 -69 -14 -171 -61 -196
-90 -45 -51 -51 -129 -13 -187 13 -19 25 -25 55 -25 160 0 360 -170 480 -407
l31 -63 138 0 138 0 28 -29 28 -29 -27 -52 -26 -51 52 -97 c28 -53 90 -171
136 -260 l86 -164 -42 -86 c-50 -106 -74 -198 -96 -368 -18 -136 -23 -364 -11
-474 52 -464 250 -792 604 -1002 153 -92 397 -173 597 -199 52 -7 99 -15 106
-19 7 -5 -3 -56 -35 -171 -141 -508 -206 -823 -222 -1068 l-7 -99 -126 -68
c-69 -37 -139 -75 -156 -84 -16 -9 -117 -63 -223 -120 -106 -56 -202 -114
-212 -128 -13 -15 -20 -40 -20 -65 0 -35 6 -46 43 -82 34 -33 64 -48 140 -73
52 -18 102 -32 109 -32 45 0 89 -24 117 -62 17 -22 28 -44 26 -49 -3 -4 -62
-42 -133 -85 -70 -42 -195 -119 -278 -170 -84 -50 -221 -132 -305 -180 l-154
-87 -140 17 c-77 10 -171 22 -210 28 l-70 10 -62 91 c-207 306 -420 527 -507
527 -32 0 -65 -31 -72 -67 -15 -80 41 -278 162 -570 36 -87 67 -169 69 -183 2
-14 29 -95 60 -180 141 -388 246 -618 308 -678 l34 -33 21 32 c19 30 20 31 27
10 8 -27 22 -27 30 0 13 40 124 196 173 242 54 50 83 61 137 55 28 -3 35 -1
35 13 0 10 11 19 27 23 145 35 647 191 1091 338 l543 180 152 -155 c164 -167
241 -233 335 -291 86 -52 107 -54 173 -16 49 30 328 185 474 265 119 65 482
244 565 278 139 57 250 84 250 60 0 -5 -8 -30 -19 -58 -29 -78 -34 -157 -17
-268 9 -54 22 -113 30 -132 13 -31 18 -34 88 -45 105 -18 341 -16 483 5 231
33 516 118 741 220 59 27 78 31 110 25 112 -21 202 -60 242 -103 42 -45 115
-365 106 -467 -4 -51 -29 -135 -56 -185 -98 -188 -142 -284 -169 -370 -32 -98
-34 -102 -124 -195 -168 -175 -225 -264 -225 -351 0 -70 24 -92 120 -108 172
-28 304 -42 449 -48 l155 -6 45 -35 c137 -105 313 -135 486 -81 78 24 100 50
92 109 -9 72 -78 139 -245 234 -62 36 -84 54 -89 74 -3 15 -18 74 -33 132
l-28 104 48 141 c26 77 55 156 64 175 22 46 115 194 166 265 12 17 58 86 102
154 l80 123 -1 234 c0 166 3 234 11 234 6 0 49 -5 97 -11 l86 -12 68 42 68 41
182 15 c100 8 191 15 202 15 25 0 93 98 124 179 32 79 28 123 -14 170 -45 49
-81 131 -138 306 -43 135 -46 151 -72 425 -28 284 -31 300 -68 313 -6 2 0 42
16 102 70 269 92 446 84 675 -6 192 -32 315 -93 439 -29 59 -42 105 -60 212
-25 145 -100 738 -130 1020 l-17 166 66 269 c110 449 155 697 158 870 l2 104
41 10 c316 81 501 201 601 391 19 37 44 106 56 155 18 76 21 109 16 229 -8
213 -56 394 -162 606 -156 313 -366 519 -606 594 l-56 18 -7 111 c-3 61 -9
203 -12 316 -4 113 -8 219 -9 235 -2 17 -3 70 -4 119 l-1 88 -25 -6 c-14 -3
-36 -9 -50 -12 -24 -6 -25 -5 -25 50 0 43 3 56 15 56 17 0 20 23 5 50 -9 17
-5 22 27 36 32 13 35 17 20 23 -17 6 -17 8 -3 20 25 21 20 50 -11 57 -42 10
-42 10 -28 65 33 124 106 219 202 261 25 11 84 23 132 28 110 10 165 27 196
58 54 54 16 170 -63 192 -20 5 -100 25 -176 43 l-139 32 -14 58 c-14 64 -31
99 -80 172 -57 84 -105 89 -189 20 l-44 -36 -67 70 c-91 94 -135 96 -163 6 -7
-22 -19 -53 -27 -68 l-14 -28 -41 61 c-70 106 -170 148 -232 99z m106 -84 c37
-25 86 -100 123 -185 10 -25 22 -49 25 -53 9 -10 85 99 117 169 l25 56 24 -28
c47 -57 67 -98 78 -157 l11 -60 43 66 c23 36 62 82 85 102 l42 36 22 -28 c47
-58 75 -124 81 -191 l7 -66 80 -18 c263 -59 302 -70 314 -90 9 -14 9 -23 1
-32 -12 -16 -106 -36 -165 -36 -99 0 -225 -69 -295 -162 -43 -57 -85 -162
-100 -251 l-12 -67 -44 0 c-24 0 -90 9 -146 20 -57 11 -104 20 -105 20 -2 0
-3 34 -3 75 l0 74 -69 38 c-38 21 -224 124 -414 228 -191 105 -347 193 -347
196 -1 21 205 25 371 8 152 -15 146 -20 153 108 11 174 28 253 55 253 3 0 23
-11 43 -25z m-1511 -1145 c218 -86 520 -356 895 -800 177 -209 488 -619 581
-766 36 -57 42 -63 48 -44 4 12 17 26 29 31 18 9 22 19 23 59 1 93 71 252 191
437 l73 111 47 7 c66 9 164 -10 322 -62 145 -48 198 -76 302 -159 197 -158
377 -481 444 -794 25 -118 25 -332 0 -414 -74 -245 -277 -398 -625 -471 -72
-15 -73 -15 -139 11 -37 15 -81 35 -99 46 l-31 19 -21 -30 c-12 -16 -21 -33
-21 -39 0 -5 20 -20 45 -33 25 -13 45 -27 45 -30 0 -3 -57 -40 -127 -81 -71
-41 -335 -197 -588 -348 -253 -150 -512 -303 -575 -340 -63 -37 -261 -153
-440 -259 -179 -106 -414 -245 -523 -309 -108 -64 -259 -155 -335 -202 -715
-445 -1206 -703 -1585 -836 -132 -46 -290 -84 -348 -84 l-46 0 21 43 c16 32
21 60 21 122 0 108 -29 169 -91 196 -38 17 -49 18 -91 8 -38 -10 -61 -25 -108
-73 -71 -72 -105 -148 -105 -231 l0 -54 -57 5 c-237 20 -320 43 -537 148 -299
144 -523 350 -644 591 -182 363 -155 814 77 1280 76 153 96 182 251 364 250
294 368 454 392 532 14 48 -6 175 -78 499 l-46 204 29 20 c40 28 129 121 177
186 119 161 306 484 306 530 0 20 3 22 38 15 20 -3 57 -15 81 -26 24 -10 49
-19 56 -19 41 0 211 -182 353 -376 45 -62 58 -73 104 -88 169 -56 299 -14 362
117 45 94 44 111 -15 209 -141 237 -323 427 -514 540 -61 36 -183 88 -206 88
-27 0 9 19 116 63 495 202 1055 346 1620 417 454 56 433 54 415 37 -8 -8 -65
-59 -125 -114 -318 -289 -485 -564 -485 -800 0 -134 56 -267 142 -334 53 -42
73 -44 134 -14 96 47 195 196 307 460 64 149 127 328 127 356 0 11 7 22 15 25
20 8 172 -25 216 -47 54 -27 169 -121 301 -248 107 -102 120 -112 168 -121
201 -38 326 50 354 247 6 40 3 46 -55 119 -109 137 -261 277 -391 360 -93 60
-155 90 -253 123 -46 15 -82 31 -78 35 14 13 105 5 154 -14z m2019 -59 c0 -48
-1 -49 -40 -65 -41 -16 -164 -20 -225 -7 -28 6 -30 9 -33 58 l-3 52 123 4 c68
1 135 4 151 5 26 2 27 0 27 -47z m-6223 -1233 c-4 -43 -26 -127 -61 -230 -134
-399 -119 -697 39 -772 l36 -17 -27 -47 c-14 -26 -40 -72 -57 -102 -16 -30
-31 -57 -33 -59 -2 -2 -25 15 -53 38 l-49 41 -83 -36 c-46 -19 -89 -38 -96
-41 -7 -3 -23 18 -39 49 -36 71 -105 174 -151 224 -100 107 -249 197 -372 225
-34 7 -60 18 -58 24 7 21 104 64 182 80 44 9 82 20 85 26 4 5 12 71 19 147 7
75 15 141 18 145 13 21 71 -6 120 -55 29 -29 54 -50 56 -47 2 2 -2 87 -9 189
-17 246 -17 260 0 260 22 0 112 -86 194 -185 41 -49 78 -91 81 -92 5 -2 106
137 216 297 16 22 23 26 34 17 10 -9 12 -28 8 -79z m2039 -5511 c208 -120 429
-224 587 -277 l68 -22 97 22 c126 29 344 100 617 201 121 44 242 88 268 97 46
15 76 14 795 -47 411 -35 779 -66 817 -69 l70 -4 47 47 48 47 72 -4 c81 -4
172 -40 261 -104 47 -34 77 -39 77 -12 0 10 39 12 182 10 101 -2 239 1 308 6
69 6 126 10 126 9 1 -1 14 -120 28 -265 26 -248 30 -272 72 -405 51 -160 110
-290 148 -328 23 -23 24 -29 15 -65 -6 -21 -26 -64 -45 -95 l-33 -56 -153 -11
c-84 -7 -168 -12 -187 -12 -23 0 -58 -14 -104 -42 l-69 -42 -107 13 c-58 8
-151 26 -207 42 l-101 29 -59 -26 c-147 -65 -387 -148 -493 -169 l-74 -16 -53
36 c-53 35 -70 42 -60 27 2 -4 -35 5 -82 21 -137 46 -181 43 -333 -25 -348
-155 -762 -233 -1069 -201 -60 6 -63 8 -78 42 -8 21 -17 79 -20 136 -4 86 -1
108 18 160 49 131 35 165 -71 173 -106 8 -237 -41 -599 -222 -234 -118 -304
-155 -581 -312 -188 -107 -172 -105 -276 -32 -90 63 -210 175 -334 310 -82 91
-119 140 -151 205 l-43 85 -55 -6 c-30 -3 -75 -8 -100 -12 l-45 -6 -136 203
-136 204 -97 39 c-86 36 -100 45 -135 92 l-40 53 12 97 13 97 154 99 155 98
200 0 c151 0 205 3 220 13 32 22 301 143 425 191 63 25 116 45 116 45 1 1 50
-27 110 -62z m-3179 -738 c15 -5 52 -36 81 -67 60 -65 235 -293 310 -404 l51
-75 138 -17 c222 -28 214 -16 74 -126 -66 -52 -120 -97 -120 -100 0 -3 51 -34
113 -69 l114 -63 17 -87 c9 -47 19 -95 21 -106 4 -16 -3 -23 -32 -34 -44 -16
-120 -84 -171 -154 -40 -54 -46 -52 -58 23 -13 90 -64 225 -117 313 -47 76
-200 278 -237 310 -46 41 -37 50 17 17 53 -33 138 -53 191 -44 20 3 78 15 129
27 79 18 92 24 90 40 -3 16 -14 19 -93 22 -124 4 -192 31 -265 104 -74 75
-105 143 -135 304 -4 18 -12 27 -25 27 -25 0 -33 -43 -29 -159 2 -49 1 -84 -2
-78 -15 27 -98 267 -114 326 -13 52 -14 66 -3 72 17 11 21 11 55 -2z m1938
-78 c49 -17 52 -19 194 -230 l143 -214 58 6 c33 4 76 9 97 13 37 6 39 5 61
-41 13 -26 22 -49 20 -50 -2 -1 -217 -73 -478 -160 -261 -87 -481 -160 -487
-163 -10 -3 -13 43 -13 209 0 192 -2 217 -20 254 -29 60 -14 102 63 179 34 34
78 74 97 90 19 15 29 24 21 20 -9 -5 -12 -3 -7 4 4 6 12 9 19 6 7 -2 21 3 32
11 19 15 19 16 -5 4 -40 -19 -16 1 52 42 71 43 82 45 153 20z m-555 -430 l65
-27 3 -206 c2 -190 1 -207 -15 -212 -397 -115 -545 -157 -549 -153 -3 2 -15
57 -27 121 -13 65 -28 121 -34 124 -13 8 -63 111 -62 127 0 6 33 26 72 45 84
41 203 117 267 170 25 21 60 47 79 58 l34 21 51 -21 c28 -11 80 -32 116 -47z
m5576 -203 l74 -21 0 -229 0 -229 -136 -204 c-87 -132 -142 -205 -153 -205
-37 0 -190 21 -257 35 -53 12 -81 24 -112 50 l-40 35 14 47 c27 88 10 245 -45
445 l-28 96 61 12 c81 15 305 90 436 144 58 25 107 45 108 45 2 1 37 -9 78
-21z m-6635 -263 c70 -106 115 -216 129 -315 14 -102 1 -117 -34 -38 -61 137
-127 301 -161 394 -40 114 -33 109 66 -41z m6014 -635 c52 -22 206 -55 307
-65 l67 -7 -18 -37 c-21 -41 -88 -233 -126 -363 -24 -80 -28 -88 -58 -97 -102
-33 -171 -19 -322 63 -94 51 -97 58 -65 168 18 61 155 358 165 358 2 0 24 -9
50 -20z m-208 -569 c190 -105 331 -135 428 -92 26 11 49 21 50 21 3 0 25 -59
25 -65 0 -2 -24 -19 -52 -38 -177 -120 -357 -97 -524 67 -63 62 -75 70 -90 59
-15 -11 -13 -19 27 -89 24 -43 71 -106 104 -141 33 -35 59 -63 58 -63 -13 0
-255 33 -306 42 l-69 12 6 30 c9 45 61 123 149 226 43 49 80 90 82 90 2 0 53
-27 112 -59z m576 -247 c130 -66 267 -171 267 -204 0 -5 -25 -17 -56 -26 -86
-25 -221 -16 -298 19 -66 30 -145 86 -145 102 -1 6 17 23 39 38 22 16 59 50
82 77 34 39 44 46 51 35 4 -9 31 -27 60 -41z"/>
<path d="M10642 11079 c-9 -34 -8 -41 6 -45 57 -17 167 -62 224 -91 l67 -33
16 30 c8 16 15 34 15 40 0 14 -161 91 -249 119 -35 12 -65 21 -66 21 -2 0 -7
-18 -13 -41z"/>
<path d="M8802 9479 c-286 -37 -529 -259 -689 -629 -39 -91 -83 -220 -97 -286
-7 -30 -5 -32 29 -38 40 -8 55 -2 55 22 0 35 80 253 126 343 132 264 278 409
484 481 78 28 224 34 326 15 89 -17 265 -82 329 -122 l40 -24 -35 -1 c-162 -2
-364 -117 -498 -285 -296 -367 -342 -724 -119 -931 172 -161 409 -200 679
-113 263 85 608 330 687 488 84 165 80 352 -9 491 -76 118 -283 261 -453 312
-23 7 -80 37 -127 66 -187 118 -373 190 -542 212 -91 11 -95 11 -186 -1z m758
-751 c60 -25 97 -62 126 -123 60 -127 9 -248 -130 -311 -113 -52 -228 -32
-306 52 -53 57 -70 99 -70 169 0 67 24 119 75 163 91 80 195 98 305 50z"/>
<path d="M6480 8784 c-93 -24 -229 -98 -313 -169 -167 -143 -323 -381 -435
-669 -62 -157 -62 -159 -14 -172 l40 -11 12 41 c6 23 34 93 61 158 176 422
421 687 685 743 89 19 157 19 252 -1 185 -38 340 -130 594 -355 l47 -41 25 18
c14 11 27 24 30 30 6 15 -166 167 -277 247 -105 75 -259 149 -366 176 -101 25
-257 27 -341 5z"/>
<path d="M6882 8360 c-104 -28 -186 -75 -270 -154 -181 -172 -286 -357 -307
-541 -22 -195 142 -478 331 -573 190 -95 417 -68 640 76 195 127 358 341 409
537 71 275 -99 541 -410 641 -112 37 -288 43 -393 14z m245 -365 c80 -33 114
-92 114 -196 0 -85 -20 -159 -62 -222 -80 -121 -258 -199 -348 -152 -109 56
-98 338 19 485 40 50 138 100 197 100 24 0 60 -7 80 -15z"/>
<path d="M4184 8609 c-4 -7 -7 -42 -7 -78 1 -81 25 -149 93 -254 l49 -77 36
17 c20 10 34 22 31 29 -3 7 -29 53 -60 103 -49 83 -77 163 -62 178 8 9 85 -28
119 -56 l28 -24 27 20 c14 10 27 24 29 30 6 18 -82 83 -141 103 -62 22 -131
26 -142 9z"/>
</g>
</svg>
